<?xml version="1.0" encoding="UTF-8" standalone="no"?><!DOCTYPE svg PUBLIC "-//W3C//DTD SVG 1.1//EN" "http://www.w3.org/Graphics/SVG/1.1/DTD/svg11.dtd"><svg width="100%" height="100%" viewBox="0 0 960 480" version="1.1" xmlns="http://www.w3.org/2000/svg" xmlns:xlink="http://www.w3.org/1999/xlink" xml:space="preserve" xmlns:serif="http://www.serif.com/" style="fill-rule:evenodd;clip-rule:evenodd;stroke-linejoin:round;stroke-miterlimit:2;"><g><g><g transform="matrix(0.375588,0,0,0.386219,97.806271,-185.777679)"><g><g transform="matrix(247.463675,0,0,247.463675,982.437338,1335.386517)"><path d="M0.215,-0.54c0.029,-0.072 0.055,-0.145 0.077,-0.22c0.033,-0.005 0.049,-0.012 0.049,-0.022c0,-0.015 -0.033,-0.03 -0.1,-0.043c-0.045,0.221 -0.114,0.404 -0.208,0.547l0.021,0.017c0.047,-0.061 0.089,-0.128 0.124,-0.199l0,0.532l0.057,0l0,-0.56c0.025,-0.009 0.038,-0.017 0.038,-0.026c0,-0.011 -0.019,-0.02 -0.058,-0.026Zm0.325,0.048l0,0.146c0,0.013 -0.001,0.03 -0.002,0.051l-0.203,0l0.011,0.025l0.189,0c-0.017,0.144 -0.088,0.251 -0.215,0.32l0.015,0.021c0.152,-0.061 0.239,-0.175 0.26,-0.341l0.179,0l0,0.078l0.057,0l0,-0.3l0.13,0l0.01,-0.021c-0.016,-0.023 -0.034,-0.046 -0.054,-0.068l-0.041,0.064l-0.045,0l0,-0.166l0.028,-0.019c0.004,-0.003 0.006,-0.007 0.006,-0.01c0,-0.011 -0.021,-0.033 -0.064,-0.066l-0.037,0.048l-0.419,0l0.011,0.025l0.184,0l0,0.188l-0.243,0l0.01,0.025l0.233,0Zm0.059,-0.025l0,-0.188l0.175,0l0,0.188l-0.175,0Zm0,0.025l0.175,0l0,0.197l-0.177,0c0.001,-0.019 0.002,-0.036 0.002,-0.049l0,-0.148Z" style="fill:url(#_Radial1);fill-rule:nonzero;"/></g><g transform="matrix(247.463675,0,0,247.463675,1229.901013,1335.386517)"><path d="M0.631,-0.666c0,0.041 -0.003,0.08 -0.008,0.117c-0.026,-0.014 -0.058,-0.029 -0.096,-0.045l-0.013,0.02c0.034,0.02 0.067,0.042 0.098,0.067c-0.031,0.086 -0.079,0.149 -0.146,0.188l-0.021,-0.002c-0.001,0.034 -0.005,0.066 -0.01,0.097l-0.341,0l0.011,0.025l0.324,0c-0.019,0.065 -0.055,0.118 -0.108,0.157c-0.052,0.038 -0.133,0.069 -0.243,0.093l0.01,0.025c0.105,-0.015 0.187,-0.038 0.247,-0.07c0.085,-0.045 0.137,-0.115 0.158,-0.21l0.295,0c-0.003,0.065 -0.01,0.112 -0.023,0.141c-0.013,0.031 -0.038,0.046 -0.075,0.046c-0.041,0 -0.097,-0.006 -0.17,-0.018l0,0.027c0.059,0.01 0.099,0.019 0.121,0.027c0.025,0.009 0.038,0.023 0.039,0.041c0.043,0 0.077,-0.011 0.1,-0.032c0.037,-0.034 0.058,-0.106 0.063,-0.217l0.025,-0.014c0.007,-0.004 0.01,-0.008 0.01,-0.012c0,-0.008 -0.02,-0.027 -0.06,-0.057l-0.038,0.043l-0.283,0c0.002,-0.011 0.004,-0.025 0.006,-0.042c0.027,-0.007 0.04,-0.014 0.04,-0.023c0,-0.007 -0.013,-0.013 -0.038,-0.019c0.072,-0.037 0.122,-0.089 0.151,-0.156c0.017,0.016 0.031,0.032 0.043,0.048c0.013,0.018 0.024,0.027 0.035,0.027c0.018,0 0.027,-0.009 0.027,-0.028c0,-0.025 -0.03,-0.057 -0.089,-0.098c0.008,-0.037 0.013,-0.086 0.015,-0.149l0.087,0c-0.001,0.129 0.014,0.228 0.043,0.297c0.023,0.053 0.05,0.08 0.081,0.08c0.021,0 0.036,-0.012 0.043,-0.035c-0.017,-0.009 -0.025,-0.03 -0.025,-0.065c0,-0.027 0.003,-0.07 0.01,-0.131l-0.025,-0.013c-0.011,0.097 -0.022,0.146 -0.033,0.146c-0.003,0 -0.007,-0.009 -0.012,-0.026c-0.019,-0.062 -0.029,-0.141 -0.029,-0.238l0.022,-0.014c0.006,-0.004 0.009,-0.008 0.009,-0.012c0,-0.009 -0.019,-0.028 -0.057,-0.058l-0.035,0.044l-0.079,0l0,-0.088c0.023,-0.007 0.035,-0.015 0.035,-0.022c0,-0.013 -0.03,-0.021 -0.091,-0.024l0,0.137l-0.125,0l0.011,0.025l0.114,0Zm-0.33,0.02l0,-0.066l0.163,0l0.012,-0.018c-0.017,-0.02 -0.034,-0.038 -0.05,-0.054l-0.038,0.047l-0.087,0l0,-0.047c0.023,-0.009 0.035,-0.017 0.035,-0.024c0,-0.013 -0.029,-0.019 -0.086,-0.019l0,0.09l-0.159,0l0.01,0.025l0.149,0l0,0.066l-0.197,0l0.008,0.025l0.124,0c-0.008,0.058 -0.05,0.099 -0.127,0.123l0.01,0.022c0.107,-0.021 0.165,-0.07 0.174,-0.145l0.073,0l0,0.064c0,0.016 0.005,0.028 0.015,0.035c0.007,0.005 0.027,0.008 0.06,0.008c0.041,0 0.068,-0.003 0.083,-0.008c0.014,-0.005 0.021,-0.017 0.022,-0.038c-0.015,0 -0.023,-0.015 -0.025,-0.045l-0.021,-0.006c-0.001,0.036 -0.018,0.054 -0.051,0.054c-0.023,0 -0.034,-0.007 -0.034,-0.022l0,-0.042l0.132,0l0.012,-0.017c-0.013,-0.016 -0.026,-0.03 -0.041,-0.041c-0.005,-0.005 -0.01,-0.009 -0.015,-0.012l-0.038,0.045l-0.113,0Zm-0.051,0.287l-0.017,0.002c-0.065,0.008 -0.125,0.014 -0.182,0.017c0.011,0.053 0.022,0.08 0.035,0.08c0.007,0 0.014,-0.011 0.02,-0.032c0.125,-0.02 0.256,-0.047 0.393,-0.082l-0.003,-0.025c-0.065,0.013 -0.13,0.024 -0.195,0.033l0,-0.063l0.16,0l0.011,-0.018c-0.017,-0.02 -0.034,-0.037 -0.051,-0.052l-0.038,0.045l-0.082,0l0,-0.036c0.019,-0.006 0.029,-0.012 0.029,-0.019c0,-0.013 -0.027,-0.02 -0.08,-0.022l0,0.077l-0.164,0l0.011,0.025l0.153,0l0,0.07Z" style="fill:url(#_Radial2);fill-rule:nonzero;"/></g></g></g><g transform="matrix(0.375588,0,0,0.386219,97.806271,-185.777679)"><g><g transform="matrix(247.463675,0,0,247.463675,982.437338,1335.386517)"><path d="M0.215,-0.54c0.029,-0.072 0.055,-0.145 0.077,-0.22c0.033,-0.005 0.049,-0.012 0.049,-0.022c0,-0.015 -0.033,-0.03 -0.1,-0.043c-0.045,0.221 -0.114,0.404 -0.208,0.547l0.021,0.017c0.047,-0.061 0.089,-0.128 0.124,-0.199l0,0.532l0.057,0l0,-0.56c0.025,-0.009 0.038,-0.017 0.038,-0.026c0,-0.011 -0.019,-0.02 -0.058,-0.026Zm0.325,0.048l0,0.146c0,0.013 -0.001,0.03 -0.002,0.051l-0.203,0l0.011,0.025l0.189,0c-0.017,0.144 -0.088,0.251 -0.215,0.32l0.015,0.021c0.152,-0.061 0.239,-0.175 0.26,-0.341l0.179,0l0,0.078l0.057,0l0,-0.3l0.13,0l0.01,-0.021c-0.016,-0.023 -0.034,-0.046 -0.054,-0.068l-0.041,0.064l-0.045,0l0,-0.166l0.028,-0.019c0.004,-0.003 0.006,-0.007 0.006,-0.01c0,-0.011 -0.021,-0.033 -0.064,-0.066l-0.037,0.048l-0.419,0l0.011,0.025l0.184,0l0,0.188l-0.243,0l0.01,0.025l0.233,0Zm0.059,-0.025l0,-0.188l0.175,0l0,0.188l-0.175,0Zm0,0.025l0.175,0l0,0.197l-0.177,0c0.001,-0.019 0.002,-0.036 0.002,-0.049l0,-0.148Z" style="fill:url(#_Radial3);fill-rule:nonzero;"/></g><g transform="matrix(247.463675,0,0,247.463675,1229.901013,1335.386517)"><path d="M0.631,-0.666c0,0.041 -0.003,0.08 -0.008,0.117c-0.026,-0.014 -0.058,-0.029 -0.096,-0.045l-0.013,0.02c0.034,0.02 0.067,0.042 0.098,0.067c-0.031,0.086 -0.079,0.149 -0.146,0.188l-0.021,-0.002c-0.001,0.034 -0.005,0.066 -0.01,0.097l-0.341,0l0.011,0.025l0.324,0c-0.019,0.065 -0.055,0.118 -0.108,0.157c-0.052,0.038 -0.133,0.069 -0.243,0.093l0.01,0.025c0.105,-0.015 0.187,-0.038 0.247,-0.07c0.085,-0.045 0.137,-0.115 0.158,-0.21l0.295,0c-0.003,0.065 -0.01,0.112 -0.023,0.141c-0.013,0.031 -0.038,0.046 -0.075,0.046c-0.041,0 -0.097,-0.006 -0.17,-0.018l0,0.027c0.059,0.01 0.099,0.019 0.121,0.027c0.025,0.009 0.038,0.023 0.039,0.041c0.043,0 0.077,-0.011 0.1,-0.032c0.037,-0.034 0.058,-0.106 0.063,-0.217l0.025,-0.014c0.007,-0.004 0.01,-0.008 0.01,-0.012c0,-0.008 -0.02,-0.027 -0.06,-0.057l-0.038,0.043l-0.283,0c0.002,-0.011 0.004,-0.025 0.006,-0.042c0.027,-0.007 0.04,-0.014 0.04,-0.023c0,-0.007 -0.013,-0.013 -0.038,-0.019c0.072,-0.037 0.122,-0.089 0.151,-0.156c0.017,0.016 0.031,0.032 0.043,0.048c0.013,0.018 0.024,0.027 0.035,0.027c0.018,0 0.027,-0.009 0.027,-0.028c0,-0.025 -0.03,-0.057 -0.089,-0.098c0.008,-0.037 0.013,-0.086 0.015,-0.149l0.087,0c-0.001,0.129 0.014,0.228 0.043,0.297c0.023,0.053 0.05,0.08 0.081,0.08c0.021,0 0.036,-0.012 0.043,-0.035c-0.017,-0.009 -0.025,-0.03 -0.025,-0.065c0,-0.027 0.003,-0.07 0.01,-0.131l-0.025,-0.013c-0.011,0.097 -0.022,0.146 -0.033,0.146c-0.003,0 -0.007,-0.009 -0.012,-0.026c-0.019,-0.062 -0.029,-0.141 -0.029,-0.238l0.022,-0.014c0.006,-0.004 0.009,-0.008 0.009,-0.012c0,-0.009 -0.019,-0.028 -0.057,-0.058l-0.035,0.044l-0.079,0l0,-0.088c0.023,-0.007 0.035,-0.015 0.035,-0.022c0,-0.013 -0.03,-0.021 -0.091,-0.024l0,0.137l-0.125,0l0.011,0.025l0.114,0Zm-0.33,0.02l0,-0.066l0.163,0l0.012,-0.018c-0.017,-0.02 -0.034,-0.038 -0.05,-0.054l-0.038,0.047l-0.087,0l0,-0.047c0.023,-0.009 0.035,-0.017 0.035,-0.024c0,-0.013 -0.029,-0.019 -0.086,-0.019l0,0.09l-0.159,0l0.01,0.025l0.149,0l0,0.066l-0.197,0l0.008,0.025l0.124,0c-0.008,0.058 -0.05,0.099 -0.127,0.123l0.01,0.022c0.107,-0.021 0.165,-0.07 0.174,-0.145l0.073,0l0,0.064c0,0.016 0.005,0.028 0.015,0.035c0.007,0.005 0.027,0.008 0.06,0.008c0.041,0 0.068,-0.003 0.083,-0.008c0.014,-0.005 0.021,-0.017 0.022,-0.038c-0.015,0 -0.023,-0.015 -0.025,-0.045l-0.021,-0.006c-0.001,0.036 -0.018,0.054 -0.051,0.054c-0.023,0 -0.034,-0.007 -0.034,-0.022l0,-0.042l0.132,0l0.012,-0.017c-0.013,-0.016 -0.026,-0.03 -0.041,-0.041c-0.005,-0.005 -0.01,-0.009 -0.015,-0.012l-0.038,0.045l-0.113,0Zm-0.051,0.287l-0.017,0.002c-0.065,0.008 -0.125,0.014 -0.182,0.017c0.011,0.053 0.022,0.08 0.035,0.08c0.007,0 0.014,-0.011 0.02,-0.032c0.125,-0.02 0.256,-0.047 0.393,-0.082l-0.003,-0.025c-0.065,0.013 -0.13,0.024 -0.195,0.033l0,-0.063l0.16,0l0.011,-0.018c-0.017,-0.02 -0.034,-0.037 -0.051,-0.052l-0.038,0.045l-0.082,0l0,-0.036c0.019,-0.006 0.029,-0.012 0.029,-0.019c0,-0.013 -0.027,-0.02 -0.08,-0.022l0,0.077l-0.164,0l0.011,0.025l0.153,0l0,0.07Z" style="fill:url(#_Radial4);fill-rule:nonzero;"/></g></g></g><g transform="matrix(0.357609,0,0,0.367731,539.551477,-320.262156)"><g><g transform="matrix(196.765698,0,0,196.765698,-97.604306,1944.822426)"><path d="M0.885,-0.645c0.003,0 0.008,0 0.012,-0.001c0.062,-0.015 0.089,-0.059 0.089,-0.103c0,-0.055 -0.043,-0.112 -0.111,-0.112c-0.076,0 -0.115,0.058 -0.115,0.112c0,0.03 0.013,0.059 0.037,0.077c0.008,0.006 0.016,0.009 0.021,0.009c0.008,0 0.013,-0.005 0.013,-0.013c0,-0.006 -0.003,-0.014 -0.01,-0.022c-0.01,-0.012 -0.015,-0.028 -0.015,-0.043c0,-0.03 0.019,-0.058 0.056,-0.058c0.032,0 0.051,0.024 0.051,0.05c0,0.018 -0.01,0.037 -0.031,0.047c-0.018,0.009 -0.026,0.022 -0.026,0.033c0,0.013 0.011,0.024 0.029,0.024Zm-0.672,0.689c0.004,-0 0.007,-0.001 0.012,-0.003c0.353,-0.135 0.458,-0.308 0.57,-0.615c0.004,-0.014 0.007,-0.026 0.007,-0.036c0,-0.025 -0.015,-0.039 -0.051,-0.039c-0.01,0 -0.021,0.001 -0.034,0.003c-0.145,0.025 -0.252,0.037 -0.325,0.037c-0.047,0 -0.081,-0.005 -0.101,-0.015c-0.006,-0.002 -0.011,-0.004 -0.016,-0.004c-0.012,0 -0.02,0.008 -0.02,0.02c0,0.011 0.008,0.026 0.027,0.041c0.02,0.016 0.037,0.022 0.061,0.022c0.052,0 0.135,-0.031 0.356,-0.05c0.012,-0.001 0.017,0.002 0.017,0.009c0,0.003 0,0.005 -0.001,0.009c-0.09,0.323 -0.255,0.48 -0.5,0.595c-0.009,0.004 -0.014,0.011 -0.014,0.016c0,0.005 0.004,0.01 0.012,0.01Z" style="fill:url(#_Radial5);fill-rule:nonzero;"/></g><g transform="matrix(196.765698,0,0,196.765698,99.161391,1944.822426)"><path d="M0.803,-0.523c0,-0.037 -0.021,-0.059 -0.071,-0.059c-0.01,0 -0.021,0.001 -0.034,0.003c-0.138,0.02 -0.27,0.036 -0.347,0.043c-0.005,-0.026 -0.021,-0.058 -0.08,-0.068c-0.007,-0.001 -0.013,-0.001 -0.019,-0.001c-0.026,0 -0.038,0.01 -0.038,0.023c0,0.009 0.006,0.02 0.019,0.027c0.051,0.029 0.049,0.039 0.078,0.474c0.002,0.028 0.017,0.043 0.031,0.043c0.013,0 0.026,-0.015 0.024,-0.044c-0.001,-0.015 -0.001,-0.03 -0.002,-0.044c0.059,-0.004 0.118,-0.006 0.189,-0.006c0.056,0 0.119,0.001 0.197,0.004c0.031,0.001 0.043,-0.01 0.043,-0.024c0,-0.018 -0.021,-0.04 -0.052,-0.044c0.021,-0.121 0.042,-0.231 0.056,-0.29c0.004,-0.013 0.006,-0.026 0.006,-0.037Zm-0.441,0.356c-0.008,-0.179 -0.011,-0.264 -0.011,-0.312l0.001,-0.012c0.109,-0.014 0.2,-0.022 0.36,-0.031c0.015,-0.001 0.019,0.008 0.019,0.018l-0.001,0.007c-0.002,0.025 -0.018,0.18 -0.031,0.302c-0.122,0.006 -0.24,0.016 -0.337,0.028Z" style="fill:url(#_Radial6);fill-rule:nonzero;"/></g><g transform="matrix(196.765698,0,0,196.765698,295.927089,1944.822426)"><path d="M0.955,-0.672c0.019,0 0.032,-0.014 0.032,-0.031c0,-0.012 -0.006,-0.025 -0.02,-0.035c-0.031,-0.022 -0.068,-0.03 -0.104,-0.03c-0.01,0 -0.021,0.001 -0.031,0.002c-0.014,0.002 -0.021,0.009 -0.021,0.016c0,0.008 0.007,0.016 0.021,0.019c0.031,0.007 0.063,0.024 0.09,0.045c0.012,0.01 0.023,0.014 0.033,0.014Zm-0.079,0.075c0.019,0 0.033,-0.014 0.033,-0.031c0,-0.011 -0.006,-0.024 -0.022,-0.037c-0.041,-0.033 -0.078,-0.043 -0.128,-0.043c-0.005,0 -0.011,0.001 -0.016,0.001c-0.015,0 -0.022,0.007 -0.022,0.015c0,0.008 0.005,0.015 0.019,0.02c0.032,0.01 0.071,0.033 0.098,0.058c0.013,0.012 0.027,0.017 0.038,0.017Zm-0.463,0.149c0.021,0 0.039,-0.014 0.039,-0.037c0,-0.012 -0.006,-0.026 -0.018,-0.042c-0.046,-0.055 -0.124,-0.079 -0.202,-0.079l-0.024,0c-0.014,0.001 -0.021,0.006 -0.021,0.012c0,0.006 0.008,0.012 0.02,0.014c0.071,0.012 0.115,0.053 0.159,0.108c0.014,0.017 0.031,0.024 0.047,0.024Zm-0.119,0.437c0.19,0 0.454,-0.289 0.623,-0.545c0.004,-0.006 0.006,-0.011 0.006,-0.016c0,-0.006 -0.003,-0.009 -0.008,-0.009c-0.007,0 -0.016,0.005 -0.025,0.017c-0.227,0.304 -0.47,0.473 -0.575,0.473c-0.032,-0 -0.045,-0.006 -0.063,-0.022c-0.007,-0.007 -0.015,-0.01 -0.022,-0.01c-0.011,0 -0.02,0.008 -0.02,0.025c0,0.01 0.003,0.023 0.01,0.039c0.013,0.029 0.038,0.048 0.074,0.048Zm0.03,-0.267c0.02,0 0.036,-0.015 0.036,-0.035c0,-0.012 -0.005,-0.025 -0.017,-0.039c-0.044,-0.049 -0.114,-0.066 -0.183,-0.066c-0.01,0 -0.021,0.001 -0.031,0.002c-0.011,0 -0.017,0.006 -0.017,0.011c0,0.006 0.006,0.012 0.019,0.014c0.064,0.01 0.117,0.047 0.146,0.085c0.014,0.02 0.032,0.028 0.047,0.028Z" style="fill:url(#_Radial7);fill-rule:nonzero;"/></g><g transform="matrix(196.765698,0,0,196.765698,492.692787,1944.822426)"><path d="M0.793,-0.134c-0.015,-0.008 -0.028,-0.009 -0.042,-0.009c-0.026,0 -0.054,0.007 -0.096,0.009l-0.142,0.01c0.005,-0.124 0.01,-0.182 0.015,-0.198c0.002,-0.01 0.004,-0.017 0.004,-0.024c0,-0.013 -0.006,-0.022 -0.025,-0.031c0.029,-0.003 0.063,-0.007 0.101,-0.012c0.01,-0.001 0.02,-0.002 0.028,-0.002c0.022,0 0.044,0.003 0.067,0.01c0.004,0.001 0.008,0.001 0.011,0.001c0.009,0 0.014,-0.006 0.014,-0.014c0,-0.014 -0.013,-0.034 -0.032,-0.038c-0.008,-0.002 -0.014,-0.002 -0.022,-0.002c-0.015,0 -0.032,0.003 -0.068,0.007c-0.145,0.015 -0.211,0.025 -0.252,0.025c-0.028,0 -0.045,-0.005 -0.068,-0.016c-0.004,-0.002 -0.007,-0.003 -0.011,-0.003c-0.008,0 -0.014,0.004 -0.014,0.012c0,0.008 0.007,0.019 0.025,0.033c0.014,0.011 0.029,0.017 0.057,0.017c0.024,0 0.058,-0.004 0.11,-0.011c0.011,0.01 0.02,0.025 0.022,0.052c0.002,0.029 0.004,0.079 0.004,0.137c0,0.019 -0.001,0.039 -0.001,0.06c-0.093,0.007 -0.148,0.01 -0.184,0.01c-0.048,0 -0.065,-0.006 -0.096,-0.018c-0.004,-0.001 -0.009,-0.002 -0.013,-0.002c-0.011,0 -0.02,0.005 -0.02,0.014c0,0.008 0.006,0.016 0.018,0.026c0.025,0.019 0.038,0.026 0.063,0.026c0.046,0 0.133,-0.023 0.413,-0.032l0.042,0c0.032,0 0.062,0.001 0.094,0.006l0.01,0.001c0.014,0 0.019,-0.005 0.019,-0.012c0,-0.009 -0.011,-0.023 -0.031,-0.032Z" style="fill:url(#_Radial8);fill-rule:nonzero;"/></g><g transform="matrix(196.765698,0,0,196.765698,689.458484,1944.822426)"><path d="M0.752,-0.619c-0.003,0 -0.007,0.001 -0.011,0.001c-0.06,0.005 -0.133,0.007 -0.202,0.007c0.006,-0.013 0.013,-0.027 0.019,-0.041c0.007,-0.015 0.01,-0.027 0.01,-0.037c0,-0.024 -0.021,-0.041 -0.077,-0.062c-0.008,-0.003 -0.015,-0.004 -0.021,-0.004c-0.011,0 -0.019,0.005 -0.019,0.014c0,0.008 0.007,0.02 0.021,0.034c0.011,0.01 0.015,0.023 0.015,0.039c0,0.016 -0.005,0.033 -0.012,0.051c-0.064,0.158 -0.148,0.244 -0.266,0.312c-0.01,0.006 -0.013,0.012 -0.013,0.017c0,0.004 0.003,0.008 0.009,0.008c0.003,0 0.007,-0.001 0.011,-0.003c0.138,-0.061 0.223,-0.137 0.302,-0.286c0.038,-0.001 0.085,-0.003 0.125,-0.003c0.023,0 0.043,0.001 0.059,0.001c0.009,0.001 0.013,0.005 0.013,0.011c0,0.002 -0.001,0.004 -0.002,0.007c-0.081,0.256 -0.194,0.408 -0.527,0.569c-0.011,0.006 -0.017,0.013 -0.017,0.017c0,0.004 0.003,0.007 0.009,0.007c0.004,0 0.009,-0.001 0.014,-0.003c0.319,-0.122 0.45,-0.246 0.6,-0.56c0.01,-0.02 0.015,-0.038 0.015,-0.054c0,-0.026 -0.017,-0.042 -0.055,-0.042Z" style="fill:url(#_Radial9);fill-rule:nonzero;"/></g><g transform="matrix(196.765698,0,0,196.765698,886.224182,1944.822426)"><path d="M0.785,-0.333c-0.082,-0.101 -0.164,-0.126 -0.279,-0.135l0,-0.026c0,-0.052 0.001,-0.102 0.003,-0.153c0.001,-0.028 0.004,-0.056 0.007,-0.08c0.001,-0.005 0.002,-0.011 0.002,-0.018c0,-0.024 -0.011,-0.053 -0.07,-0.067c-0.005,-0.002 -0.01,-0.002 -0.015,-0.002c-0.017,0 -0.028,0.008 -0.028,0.021c0,0.009 0.006,0.02 0.019,0.032c0.03,0.025 0.04,0.056 0.04,0.147c0,0.099 -0.012,0.267 -0.028,0.574c-0.002,0.053 0.022,0.082 0.045,0.082c0.022,-0 0.044,-0.024 0.044,-0.075c0,-0.003 -0.001,-0.008 -0.001,-0.013c-0.01,-0.154 -0.016,-0.277 -0.018,-0.391c0.09,0.008 0.145,0.05 0.202,0.156c0.015,0.029 0.037,0.041 0.056,0.041c0.023,0 0.042,-0.017 0.042,-0.043c0,-0.015 -0.006,-0.032 -0.021,-0.05Z" style="fill:url(#_Radial10);fill-rule:nonzero;"/></g></g></g><g transform="matrix(0.357609,0,0,0.367731,539.551477,-320.262156)"><g><g transform="matrix(196.765698,0,0,196.765698,-97.604306,1944.822426)"><path d="M0.885,-0.645c0.003,0 0.008,0 0.012,-0.001c0.062,-0.015 0.089,-0.059 0.089,-0.103c0,-0.055 -0.043,-0.112 -0.111,-0.112c-0.076,0 -0.115,0.058 -0.115,0.112c0,0.03 0.013,0.059 0.037,0.077c0.008,0.006 0.016,0.009 0.021,0.009c0.008,0 0.013,-0.005 0.013,-0.013c0,-0.006 -0.003,-0.014 -0.01,-0.022c-0.01,-0.012 -0.015,-0.028 -0.015,-0.043c0,-0.03 0.019,-0.058 0.056,-0.058c0.032,0 0.051,0.024 0.051,0.05c0,0.018 -0.01,0.037 -0.031,0.047c-0.018,0.009 -0.026,0.022 -0.026,0.033c0,0.013 0.011,0.024 0.029,0.024Zm-0.672,0.689c0.004,-0 0.007,-0.001 0.012,-0.003c0.353,-0.135 0.458,-0.308 0.57,-0.615c0.004,-0.014 0.007,-0.026 0.007,-0.036c0,-0.025 -0.015,-0.039 -0.051,-0.039c-0.01,0 -0.021,0.001 -0.034,0.003c-0.145,0.025 -0.252,0.037 -0.325,0.037c-0.047,0 -0.081,-0.005 -0.101,-0.015c-0.006,-0.002 -0.011,-0.004 -0.016,-0.004c-0.012,0 -0.02,0.008 -0.02,0.02c0,0.011 0.008,0.026 0.027,0.041c0.02,0.016 0.037,0.022 0.061,0.022c0.052,0 0.135,-0.031 0.356,-0.05c0.012,-0.001 0.017,0.002 0.017,0.009c0,0.003 0,0.005 -0.001,0.009c-0.09,0.323 -0.255,0.48 -0.5,0.595c-0.009,0.004 -0.014,0.011 -0.014,0.016c0,0.005 0.004,0.01 0.012,0.01Z" style="fill:url(#_Radial11);fill-rule:nonzero;"/></g><g transform="matrix(196.765698,0,0,196.765698,99.161391,1944.822426)"><path d="M0.803,-0.523c0,-0.037 -0.021,-0.059 -0.071,-0.059c-0.01,0 -0.021,0.001 -0.034,0.003c-0.138,0.02 -0.27,0.036 -0.347,0.043c-0.005,-0.026 -0.021,-0.058 -0.08,-0.068c-0.007,-0.001 -0.013,-0.001 -0.019,-0.001c-0.026,0 -0.038,0.01 -0.038,0.023c0,0.009 0.006,0.02 0.019,0.027c0.051,0.029 0.049,0.039 0.078,0.474c0.002,0.028 0.017,0.043 0.031,0.043c0.013,0 0.026,-0.015 0.024,-0.044c-0.001,-0.015 -0.001,-0.03 -0.002,-0.044c0.059,-0.004 0.118,-0.006 0.189,-0.006c0.056,0 0.119,0.001 0.197,0.004c0.031,0.001 0.043,-0.01 0.043,-0.024c0,-0.018 -0.021,-0.04 -0.052,-0.044c0.021,-0.121 0.042,-0.231 0.056,-0.29c0.004,-0.013 0.006,-0.026 0.006,-0.037Zm-0.441,0.356c-0.008,-0.179 -0.011,-0.264 -0.011,-0.312l0.001,-0.012c0.109,-0.014 0.2,-0.022 0.36,-0.031c0.015,-0.001 0.019,0.008 0.019,0.018l-0.001,0.007c-0.002,0.025 -0.018,0.18 -0.031,0.302c-0.122,0.006 -0.24,0.016 -0.337,0.028Z" style="fill:url(#_Radial12);fill-rule:nonzero;"/></g><g transform="matrix(196.765698,0,0,196.765698,295.927089,1944.822426)"><path d="M0.955,-0.672c0.019,0 0.032,-0.014 0.032,-0.031c0,-0.012 -0.006,-0.025 -0.02,-0.035c-0.031,-0.022 -0.068,-0.03 -0.104,-0.03c-0.01,0 -0.021,0.001 -0.031,0.002c-0.014,0.002 -0.021,0.009 -0.021,0.016c0,0.008 0.007,0.016 0.021,0.019c0.031,0.007 0.063,0.024 0.09,0.045c0.012,0.01 0.023,0.014 0.033,0.014Zm-0.079,0.075c0.019,0 0.033,-0.014 0.033,-0.031c0,-0.011 -0.006,-0.024 -0.022,-0.037c-0.041,-0.033 -0.078,-0.043 -0.128,-0.043c-0.005,0 -0.011,0.001 -0.016,0.001c-0.015,0 -0.022,0.007 -0.022,0.015c0,0.008 0.005,0.015 0.019,0.02c0.032,0.01 0.071,0.033 0.098,0.058c0.013,0.012 0.027,0.017 0.038,0.017Zm-0.463,0.149c0.021,0 0.039,-0.014 0.039,-0.037c0,-0.012 -0.006,-0.026 -0.018,-0.042c-0.046,-0.055 -0.124,-0.079 -0.202,-0.079l-0.024,0c-0.014,0.001 -0.021,0.006 -0.021,0.012c0,0.006 0.008,0.012 0.02,0.014c0.071,0.012 0.115,0.053 0.159,0.108c0.014,0.017 0.031,0.024 0.047,0.024Zm-0.119,0.437c0.19,0 0.454,-0.289 0.623,-0.545c0.004,-0.006 0.006,-0.011 0.006,-0.016c0,-0.006 -0.003,-0.009 -0.008,-0.009c-0.007,0 -0.016,0.005 -0.025,0.017c-0.227,0.304 -0.47,0.473 -0.575,0.473c-0.032,-0 -0.045,-0.006 -0.063,-0.022c-0.007,-0.007 -0.015,-0.01 -0.022,-0.01c-0.011,0 -0.02,0.008 -0.02,0.025c0,0.01 0.003,0.023 0.01,0.039c0.013,0.029 0.038,0.048 0.074,0.048Zm0.03,-0.267c0.02,0 0.036,-0.015 0.036,-0.035c0,-0.012 -0.005,-0.025 -0.017,-0.039c-0.044,-0.049 -0.114,-0.066 -0.183,-0.066c-0.01,0 -0.021,0.001 -0.031,0.002c-0.011,0 -0.017,0.006 -0.017,0.011c0,0.006 0.006,0.012 0.019,0.014c0.064,0.01 0.117,0.047 0.146,0.085c0.014,0.02 0.032,0.028 0.047,0.028Z" style="fill:url(#_Radial13);fill-rule:nonzero;"/></g><g transform="matrix(196.765698,0,0,196.765698,492.692787,1944.822426)"><path d="M0.793,-0.134c-0.015,-0.008 -0.028,-0.009 -0.042,-0.009c-0.026,0 -0.054,0.007 -0.096,0.009l-0.142,0.01c0.005,-0.124 0.01,-0.182 0.015,-0.198c0.002,-0.01 0.004,-0.017 0.004,-0.024c0,-0.013 -0.006,-0.022 -0.025,-0.031c0.029,-0.003 0.063,-0.007 0.101,-0.012c0.01,-0.001 0.02,-0.002 0.028,-0.002c0.022,0 0.044,0.003 0.067,0.01c0.004,0.001 0.008,0.001 0.011,0.001c0.009,0 0.014,-0.006 0.014,-0.014c0,-0.014 -0.013,-0.034 -0.032,-0.038c-0.008,-0.002 -0.014,-0.002 -0.022,-0.002c-0.015,0 -0.032,0.003 -0.068,0.007c-0.145,0.015 -0.211,0.025 -0.252,0.025c-0.028,0 -0.045,-0.005 -0.068,-0.016c-0.004,-0.002 -0.007,-0.003 -0.011,-0.003c-0.008,0 -0.014,0.004 -0.014,0.012c0,0.008 0.007,0.019 0.025,0.033c0.014,0.011 0.029,0.017 0.057,0.017c0.024,0 0.058,-0.004 0.11,-0.011c0.011,0.01 0.02,0.025 0.022,0.052c0.002,0.029 0.004,0.079 0.004,0.137c0,0.019 -0.001,0.039 -0.001,0.06c-0.093,0.007 -0.148,0.01 -0.184,0.01c-0.048,0 -0.065,-0.006 -0.096,-0.018c-0.004,-0.001 -0.009,-0.002 -0.013,-0.002c-0.011,0 -0.02,0.005 -0.02,0.014c0,0.008 0.006,0.016 0.018,0.026c0.025,0.019 0.038,0.026 0.063,0.026c0.046,0 0.133,-0.023 0.413,-0.032l0.042,0c0.032,0 0.062,0.001 0.094,0.006l0.01,0.001c0.014,0 0.019,-0.005 0.019,-0.012c0,-0.009 -0.011,-0.023 -0.031,-0.032Z" style="fill:url(#_Radial14);fill-rule:nonzero;"/></g><g transform="matrix(196.765698,0,0,196.765698,689.458484,1944.822426)"><path d="M0.752,-0.619c-0.003,0 -0.007,0.001 -0.011,0.001c-0.06,0.005 -0.133,0.007 -0.202,0.007c0.006,-0.013 0.013,-0.027 0.019,-0.041c0.007,-0.015 0.01,-0.027 0.01,-0.037c0,-0.024 -0.021,-0.041 -0.077,-0.062c-0.008,-0.003 -0.015,-0.004 -0.021,-0.004c-0.011,0 -0.019,0.005 -0.019,0.014c0,0.008 0.007,0.02 0.021,0.034c0.011,0.01 0.015,0.023 0.015,0.039c0,0.016 -0.005,0.033 -0.012,0.051c-0.064,0.158 -0.148,0.244 -0.266,0.312c-0.01,0.006 -0.013,0.012 -0.013,0.017c0,0.004 0.003,0.008 0.009,0.008c0.003,0 0.007,-0.001 0.011,-0.003c0.138,-0.061 0.223,-0.137 0.302,-0.286c0.038,-0.001 0.085,-0.003 0.125,-0.003c0.023,0 0.043,0.001 0.059,0.001c0.009,0.001 0.013,0.005 0.013,0.011c0,0.002 -0.001,0.004 -0.002,0.007c-0.081,0.256 -0.194,0.408 -0.527,0.569c-0.011,0.006 -0.017,0.013 -0.017,0.017c0,0.004 0.003,0.007 0.009,0.007c0.004,0 0.009,-0.001 0.014,-0.003c0.319,-0.122 0.45,-0.246 0.6,-0.56c0.01,-0.02 0.015,-0.038 0.015,-0.054c0,-0.026 -0.017,-0.042 -0.055,-0.042Z" style="fill:url(#_Radial15);fill-rule:nonzero;"/></g><g transform="matrix(196.765698,0,0,196.765698,886.224182,1944.822426)"><path d="M0.785,-0.333c-0.082,-0.101 -0.164,-0.126 -0.279,-0.135l0,-0.026c0,-0.052 0.001,-0.102 0.003,-0.153c0.001,-0.028 0.004,-0.056 0.007,-0.08c0.001,-0.005 0.002,-0.011 0.002,-0.018c0,-0.024 -0.011,-0.053 -0.07,-0.067c-0.005,-0.002 -0.01,-0.002 -0.015,-0.002c-0.017,0 -0.028,0.008 -0.028,0.021c0,0.009 0.006,0.02 0.019,0.032c0.03,0.025 0.04,0.056 0.04,0.147c0,0.099 -0.012,0.267 -0.028,0.574c-0.002,0.053 0.022,0.082 0.045,0.082c0.022,-0 0.044,-0.024 0.044,-0.075c0,-0.003 -0.001,-0.008 -0.001,-0.013c-0.01,-0.154 -0.016,-0.277 -0.018,-0.391c0.09,0.008 0.145,0.05 0.202,0.156c0.015,0.029 0.037,0.041 0.056,0.041c0.023,0 0.042,-0.017 0.042,-0.043c0,-0.015 -0.006,-0.032 -0.021,-0.05Z" style="fill:url(#_Radial16);fill-rule:nonzero;"/></g></g></g><g transform="matrix(0.596115,0,0,0.612987,783.324128,329.799631)"><g><g transform="matrix(286.506993,0,0,286.506993,-265.591982,0)"><path d="M0.483,-0.01l0,-0.031c-0.054,0 -0.088,-0.004 -0.102,-0.012c-0.02,-0.011 -0.03,-0.032 -0.03,-0.062l0,-0.629c-0.041,0.032 -0.115,0.054 -0.221,0.065l0,0.028l0.099,0c0.035,0 0.052,0.018 0.052,0.053l0,0.483c0,0.033 -0.011,0.054 -0.034,0.064c-0.014,0.007 -0.049,0.01 -0.104,0.01l0,0.031l0.34,0Z" style="fill:url(#_Radial17);fill-rule:nonzero;"/></g><g transform="matrix(286.506993,0,0,286.506993,-88.530661,0)"><path d="M0.547,-0.215l-0.029,0c-0.011,0.061 -0.023,0.1 -0.035,0.116c-0.013,0.019 -0.04,0.028 -0.081,0.028l-0.265,0c0.019,-0.085 0.082,-0.162 0.191,-0.231l0.028,-0.018c0.067,-0.043 0.112,-0.081 0.135,-0.114c0.025,-0.035 0.037,-0.073 0.037,-0.115c0,-0.061 -0.023,-0.109 -0.07,-0.145c-0.04,-0.031 -0.089,-0.046 -0.148,-0.046c-0.063,0 -0.113,0.019 -0.152,0.058c-0.037,0.037 -0.056,0.079 -0.056,0.124c0,0.045 0.02,0.067 0.059,0.067c0.032,0 0.048,-0.016 0.048,-0.049c0,-0.031 -0.016,-0.046 -0.048,-0.047c0.001,-0.021 0.008,-0.042 0.022,-0.061c0.026,-0.037 0.067,-0.055 0.124,-0.055c0.035,0 0.066,0.01 0.091,0.029c0.035,0.027 0.052,0.067 0.052,0.12c0,0.039 -0.013,0.075 -0.038,0.11c-0.018,0.025 -0.054,0.059 -0.109,0.1l-0.016,0.013c-0.113,0.092 -0.181,0.186 -0.203,0.281l-0,0.04l0.439,0l0.024,-0.205Z" style="fill:url(#_Radial18);fill-rule:nonzero;"/></g><g transform="matrix(286.506993,0,0,286.506993,88.530661,0)"><path d="M0.189,-0.653l0.312,0l0.014,-0.062l-0.368,0l-0.037,0.397l0.039,0.005c0.035,-0.073 0.088,-0.109 0.159,-0.109c0.052,0 0.094,0.022 0.125,0.065c0.025,0.035 0.037,0.079 0.037,0.132c0,0.068 -0.018,0.12 -0.054,0.156c-0.03,0.03 -0.069,0.045 -0.116,0.045c-0.041,-0.001 -0.075,-0.011 -0.104,-0.031c-0.027,-0.018 -0.043,-0.039 -0.047,-0.063c0.003,0.001 0.007,0.001 0.011,0.001c0.011,0 0.021,-0.005 0.03,-0.014c0.01,-0.009 0.015,-0.02 0.015,-0.033c0,-0.033 -0.017,-0.05 -0.051,-0.05c-0.041,0 -0.061,0.022 -0.061,0.065c0,0.057 0.031,0.102 0.092,0.135c0.038,0.02 0.079,0.03 0.123,0.03c0.053,0 0.099,-0.014 0.14,-0.041c0.066,-0.046 0.099,-0.116 0.099,-0.21c0,-0.054 -0.016,-0.102 -0.047,-0.143c-0.043,-0.055 -0.103,-0.083 -0.179,-0.083c-0.064,0 -0.117,0.021 -0.158,0.062l0.026,-0.254Z" style="fill:url(#_Radial19);fill-rule:nonzero;"/></g></g></g><g transform="matrix(0.596115,0,0,0.612987,783.324128,329.799631)"><g><g transform="matrix(286.506993,0,0,286.506993,-265.591982,0)"><path d="M0.483,-0.01l0,-0.031c-0.054,0 -0.088,-0.004 -0.102,-0.012c-0.02,-0.011 -0.03,-0.032 -0.03,-0.062l0,-0.629c-0.041,0.032 -0.115,0.054 -0.221,0.065l0,0.028l0.099,0c0.035,0 0.052,0.018 0.052,0.053l0,0.483c0,0.033 -0.011,0.054 -0.034,0.064c-0.014,0.007 -0.049,0.01 -0.104,0.01l0,0.031l0.34,0Z" style="fill:url(#_Radial20);fill-rule:nonzero;"/></g><g transform="matrix(286.506993,0,0,286.506993,-88.530661,0)"><path d="M0.547,-0.215l-0.029,0c-0.011,0.061 -0.023,0.1 -0.035,0.116c-0.013,0.019 -0.04,0.028 -0.081,0.028l-0.265,0c0.019,-0.085 0.082,-0.162 0.191,-0.231l0.028,-0.018c0.067,-0.043 0.112,-0.081 0.135,-0.114c0.025,-0.035 0.037,-0.073 0.037,-0.115c0,-0.061 -0.023,-0.109 -0.07,-0.145c-0.04,-0.031 -0.089,-0.046 -0.148,-0.046c-0.063,0 -0.113,0.019 -0.152,0.058c-0.037,0.037 -0.056,0.079 -0.056,0.124c0,0.045 0.02,0.067 0.059,0.067c0.032,0 0.048,-0.016 0.048,-0.049c0,-0.031 -0.016,-0.046 -0.048,-0.047c0.001,-0.021 0.008,-0.042 0.022,-0.061c0.026,-0.037 0.067,-0.055 0.124,-0.055c0.035,0 0.066,0.01 0.091,0.029c0.035,0.027 0.052,0.067 0.052,0.12c0,0.039 -0.013,0.075 -0.038,0.11c-0.018,0.025 -0.054,0.059 -0.109,0.1l-0.016,0.013c-0.113,0.092 -0.181,0.186 -0.203,0.281l-0,0.04l0.439,0l0.024,-0.205Z" style="fill:url(#_Radial21);fill-rule:nonzero;"/></g><g transform="matrix(286.506993,0,0,286.506993,88.530661,0)"><path d="M0.189,-0.653l0.312,0l0.014,-0.062l-0.368,0l-0.037,0.397l0.039,0.005c0.035,-0.073 0.088,-0.109 0.159,-0.109c0.052,0 0.094,0.022 0.125,0.065c0.025,0.035 0.037,0.079 0.037,0.132c0,0.068 -0.018,0.12 -0.054,0.156c-0.03,0.03 -0.069,0.045 -0.116,0.045c-0.041,-0.001 -0.075,-0.011 -0.104,-0.031c-0.027,-0.018 -0.043,-0.039 -0.047,-0.063c0.003,0.001 0.007,0.001 0.011,0.001c0.011,0 0.021,-0.005 0.03,-0.014c0.01,-0.009 0.015,-0.02 0.015,-0.033c0,-0.033 -0.017,-0.05 -0.051,-0.05c-0.041,0 -0.061,0.022 -0.061,0.065c0,0.057 0.031,0.102 0.092,0.135c0.038,0.02 0.079,0.03 0.123,0.03c0.053,0 0.099,-0.014 0.14,-0.041c0.066,-0.046 0.099,-0.116 0.099,-0.21c0,-0.054 -0.016,-0.102 -0.047,-0.143c-0.043,-0.055 -0.103,-0.083 -0.179,-0.083c-0.064,0 -0.117,0.021 -0.158,0.062l0.026,-0.254Z" style="fill:url(#_Radial22);fill-rule:nonzero;"/></g></g></g></g></g><g><g><path d="M272.384,147.681c-3.021,0 -4.683,1.511 -4.985,4.532c-1.209,4.532 -1.888,9.366 -2.039,14.503c-0.151,5.136 -0.378,10.122 -0.68,14.956c-0.604,9.366 -1.133,18.732 -1.586,28.099c-0.453,9.366 -0.68,18.884 -0.68,28.552c0,3.021 1.511,4.532 4.532,4.532c7.251,0 14.276,-0.755 21.074,-2.266c6.798,-1.511 13.521,-3.172 20.168,-4.985c6.647,-1.813 13.37,-3.55 20.168,-5.212c6.798,-1.662 13.823,-2.493 21.074,-2.493c15.409,0 30.063,2.115 43.961,6.345c13.898,4.23 26.059,10.575 36.483,19.035c10.424,8.46 18.657,18.959 24.7,31.498c6.043,12.539 9.064,27.268 9.064,44.187c0,22.66 -6.118,41.921 -18.355,57.784c-12.237,15.862 -27.57,28.023 -46,36.483c-18.43,8.46 -38.447,13.445 -60.05,14.956c-21.603,1.511 -41.544,-0.151 -59.823,-4.985c-18.279,-4.834 -33.537,-13.067 -45.774,-24.7c-12.237,-11.632 -18.355,-26.361 -18.355,-44.187c0,-8.762 2.719,-14.654 8.158,-17.675c5.438,-3.021 11.934,-4.532 19.488,-4.532c9.97,0 16.92,2.115 20.847,6.345c3.928,4.23 6.42,9.442 7.478,15.636c1.057,6.194 1.511,12.916 1.36,20.168c-0.151,7.251 0.604,13.974 2.266,20.168c1.662,6.194 5.061,11.406 10.197,15.636c5.136,4.23 13.596,6.345 25.379,6.345c12.992,0 24.171,-2.719 33.537,-8.158c9.366,-5.438 17.146,-12.614 23.34,-21.527c6.194,-8.913 10.877,-18.884 14.049,-29.911c3.172,-11.028 4.759,-22.283 4.759,-33.764c0,-12.69 -2.19,-25.304 -6.571,-37.843c-4.381,-12.539 -11.708,-22.887 -21.98,-31.045c-3.323,-2.417 -7.176,-4.759 -11.557,-7.025c-4.381,-2.266 -8.686,-3.701 -12.916,-4.305c-6.647,-0.906 -13.294,-1.057 -19.941,-0.453c-6.647,0.604 -13.218,1.36 -19.714,2.266c-6.496,0.906 -13.067,1.888 -19.714,2.946c-6.647,1.057 -13.143,1.586 -19.488,1.586c-2.719,0 -4.759,-0.755 -6.118,-2.266c-1.36,-1.511 -2.115,-3.475 -2.266,-5.892c-0.151,-2.417 -0.151,-4.834 0,-7.251c0.151,-2.417 0.227,-4.532 0.227,-6.345c0,-24.171 1.209,-48.191 3.626,-72.059c2.417,-23.869 3.626,-47.889 3.626,-72.059c0,-3.021 1.511,-4.532 4.532,-4.532l191.252,0c3.021,0 4.532,1.511 4.532,4.532l0,49.852c0,3.021 -1.511,4.532 -4.532,4.532l-176.75,0Z" style="fill:#00d178;fill-rule:nonzero;"/><path d="M106.355,393.025c-2.766,0 -4.15,-1.383 -4.15,-4.15c0,-1.383 -0.069,-3.735 -0.207,-7.054c-0.138,-3.32 -0.207,-6.847 -0.207,-10.581c0,-3.735 0.069,-7.123 0.207,-10.166c0.138,-3.043 0.484,-4.979 1.037,-5.809c0.83,-1.107 2.905,-3.458 6.224,-7.054c3.32,-3.596 7.054,-7.469 11.204,-11.619c4.15,-4.15 8.161,-8.022 12.034,-11.619c3.873,-3.596 6.501,-6.086 7.884,-7.469c7.746,-7.746 15.561,-15.422 23.445,-23.03c7.884,-7.607 15.63,-15.561 23.237,-23.86c7.607,-8.299 14.8,-16.736 21.577,-25.312c6.778,-8.576 12.933,-17.566 18.465,-26.972c5.256,-9.129 9.406,-18.811 12.449,-29.047c3.043,-10.235 4.564,-20.609 4.564,-31.121c0,-9.129 -1.176,-18.189 -3.527,-27.179c-2.351,-8.991 -5.809,-16.944 -10.374,-23.86c-4.564,-6.916 -10.581,-12.518 -18.05,-16.806c-7.469,-4.288 -16.46,-6.432 -26.972,-6.432c-6.086,0 -10.72,1.936 -13.901,5.809c-3.181,3.873 -5.533,8.645 -7.054,14.316c-1.521,5.671 -2.766,11.826 -3.735,18.465c-0.968,6.639 -2.49,12.794 -4.564,18.465c-2.075,5.671 -5.187,10.443 -9.336,14.316c-4.15,3.873 -10.235,5.809 -18.258,5.809c-5.256,0 -10.512,-1.452 -15.768,-4.357c-5.256,-2.905 -7.884,-7.4 -7.884,-13.486c0,-15.492 4.288,-27.663 12.863,-36.516c8.576,-8.852 19.295,-15.63 32.159,-20.333c12.863,-4.703 26.419,-7.746 40.665,-9.129c14.247,-1.383 27.041,-2.075 38.383,-2.075c11.342,0 22.269,1.936 32.781,5.809c10.512,3.873 19.641,9.267 27.387,16.183c7.746,6.916 13.97,15.284 18.673,25.105c4.703,9.821 7.054,20.678 7.054,32.574c0,16.875 -3.804,31.951 -11.411,45.23c-7.607,13.278 -17.082,25.312 -28.424,36.101c-11.342,10.789 -23.929,20.471 -37.761,29.047c-13.832,8.576 -26.972,16.736 -39.42,24.482c-4.15,2.49 -9.475,5.74 -15.976,9.751c-6.501,4.011 -13.002,8.299 -19.503,12.863c-6.501,4.564 -12.518,9.129 -18.05,13.693c-5.533,4.564 -9.544,9.06 -12.034,13.486l-0.415,1.66c0.553,1.66 1.867,2.697 3.942,3.112c2.075,0.415 4.219,0.484 6.432,0.207c2.213,-0.277 4.426,-0.622 6.639,-1.037c2.213,-0.415 4.011,-0.622 5.394,-0.622c5.533,-0.553 11.204,-0.83 17.013,-0.83l17.428,0c22.961,0 45.576,-0.138 67.845,-0.415c22.269,-0.277 44.884,-0.415 67.845,-0.415c3.043,0 4.564,1.383 4.564,4.15l0,43.57c0,2.766 -1.521,4.15 -4.564,4.15l-217.85,0Z" style="fill:url(#_Linear23);fill-rule:nonzero;"/><g><rect x="23.28" y="14.64" width="154.938" height="378.48" style="fill:#808080;fill-opacity:0;"/><g><rect x="23.28" y="14.64" width="154.938" height="378.48" style="fill:#fff;"/></g></g></g></g><defs><radialGradient id="_Radial1" cx="0" cy="0" r="1" gradientUnits="userSpaceOnUse" gradientTransform="matrix(7.623435,0,0,3.299739,4.057341,-0.343284)"><stop offset="0" style="stop-color:#b8860b;stop-opacity:1"/><stop offset="0.17" style="stop-color:#c2910a;stop-opacity:1"/><stop offset="0.22" style="stop-color:#ddb006;stop-opacity:1"/><stop offset="0.26" style="stop-color:#ffd700;stop-opacity:1"/><stop offset="0.35" style="stop-color:#ffde08;stop-opacity:1"/><stop offset="0.38" style="stop-color:#ffef19;stop-opacity:1"/><stop offset="0.41" style="stop-color:#ffff29;stop-opacity:1"/><stop offset="0.58" style="stop-color:#ffe736;stop-opacity:1"/><stop offset="0.8" style="stop-color:#ffe139;stop-opacity:1"/><stop offset="1" style="stop-color:#b8860b;stop-opacity:1"/></radialGradient><radialGradient id="_Radial2" cx="0" cy="0" r="1" gradientUnits="userSpaceOnUse" gradientTransform="matrix(7.623435,0,0,3.299739,3.057341,-0.343284)"><stop offset="0" style="stop-color:#b8860b;stop-opacity:1"/><stop offset="0.17" style="stop-color:#c2910a;stop-opacity:1"/><stop offset="0.22" style="stop-color:#ddb006;stop-opacity:1"/><stop offset="0.26" style="stop-color:#ffd700;stop-opacity:1"/><stop offset="0.35" style="stop-color:#ffde08;stop-opacity:1"/><stop offset="0.38" style="stop-color:#ffef19;stop-opacity:1"/><stop offset="0.41" style="stop-color:#ffff29;stop-opacity:1"/><stop offset="0.58" style="stop-color:#ffe736;stop-opacity:1"/><stop offset="0.8" style="stop-color:#ffe139;stop-opacity:1"/><stop offset="1" style="stop-color:#b8860b;stop-opacity:1"/></radialGradient><radialGradient id="_Radial3" cx="0" cy="0" r="1" gradientUnits="userSpaceOnUse" gradientTransform="matrix(7.623435,0,0,3.299739,4.057341,-0.343284)"><stop offset="0" style="stop-color:#b8860b;stop-opacity:1"/><stop offset="0.17" style="stop-color:#c2910a;stop-opacity:1"/><stop offset="0.22" style="stop-color:#ddb006;stop-opacity:1"/><stop offset="0.26" style="stop-color:#ffd700;stop-opacity:1"/><stop offset="0.35" style="stop-color:#ffde08;stop-opacity:1"/><stop offset="0.38" style="stop-color:#ffef19;stop-opacity:1"/><stop offset="0.41" style="stop-color:#ffff29;stop-opacity:1"/><stop offset="0.58" style="stop-color:#ffe736;stop-opacity:1"/><stop offset="0.8" style="stop-color:#ffe139;stop-opacity:1"/><stop offset="1" style="stop-color:#b8860b;stop-opacity:1"/></radialGradient><radialGradient id="_Radial4" cx="0" cy="0" r="1" gradientUnits="userSpaceOnUse" gradientTransform="matrix(7.623435,0,0,3.299739,3.057341,-0.343284)"><stop offset="0" style="stop-color:#b8860b;stop-opacity:1"/><stop offset="0.17" style="stop-color:#c2910a;stop-opacity:1"/><stop offset="0.22" style="stop-color:#ddb006;stop-opacity:1"/><stop offset="0.26" style="stop-color:#ffd700;stop-opacity:1"/><stop offset="0.35" style="stop-color:#ffde08;stop-opacity:1"/><stop offset="0.38" style="stop-color:#ffef19;stop-opacity:1"/><stop offset="0.41" style="stop-color:#ffff29;stop-opacity:1"/><stop offset="0.58" style="stop-color:#ffe736;stop-opacity:1"/><stop offset="0.8" style="stop-color:#ffe139;stop-opacity:1"/><stop offset="1" style="stop-color:#b8860b;stop-opacity:1"/></radialGradient><radialGradient id="_Radial5" cx="0" cy="0" r="1" gradientUnits="userSpaceOnUse" gradientTransform="matrix(9.587663,0,0,9.323757,10.591715,-3.529001)"><stop offset="0" style="stop-color:#b8860b;stop-opacity:1"/><stop offset="0.26" style="stop-color:#ffd700;stop-opacity:1"/><stop offset="0.43" style="stop-color:#ffde2f;stop-opacity:1"/><stop offset="0.49" style="stop-color:#ffef97;stop-opacity:1"/><stop offset="0.55" style="stop-color:#fff;stop-opacity:1"/><stop offset="0.66" style="stop-color:#ffdf34;stop-opacity:1"/><stop offset="0.81" style="stop-color:#ffd700;stop-opacity:1"/><stop offset="1" style="stop-color:#b8860b;stop-opacity:1"/></radialGradient><radialGradient id="_Radial6" cx="0" cy="0" r="1" gradientUnits="userSpaceOnUse" gradientTransform="matrix(9.587663,0,0,9.323757,9.591715,-3.529001)"><stop offset="0" style="stop-color:#b8860b;stop-opacity:1"/><stop offset="0.26" style="stop-color:#ffd700;stop-opacity:1"/><stop offset="0.43" style="stop-color:#ffde2f;stop-opacity:1"/><stop offset="0.49" style="stop-color:#ffef97;stop-opacity:1"/><stop offset="0.55" style="stop-color:#fff;stop-opacity:1"/><stop offset="0.66" style="stop-color:#ffdf34;stop-opacity:1"/><stop offset="0.81" style="stop-color:#ffd700;stop-opacity:1"/><stop offset="1" style="stop-color:#b8860b;stop-opacity:1"/></radialGradient><radialGradient id="_Radial7" cx="0" cy="0" r="1" gradientUnits="userSpaceOnUse" gradientTransform="matrix(9.587663,0,0,9.323757,8.591715,-3.529001)"><stop offset="0" style="stop-color:#b8860b;stop-opacity:1"/><stop offset="0.26" style="stop-color:#ffd700;stop-opacity:1"/><stop offset="0.43" style="stop-color:#ffde2f;stop-opacity:1"/><stop offset="0.49" style="stop-color:#ffef97;stop-opacity:1"/><stop offset="0.55" style="stop-color:#fff;stop-opacity:1"/><stop offset="0.66" style="stop-color:#ffdf34;stop-opacity:1"/><stop offset="0.81" style="stop-color:#ffd700;stop-opacity:1"/><stop offset="1" style="stop-color:#b8860b;stop-opacity:1"/></radialGradient><radialGradient id="_Radial8" cx="0" cy="0" r="1" gradientUnits="userSpaceOnUse" gradientTransform="matrix(9.587663,0,0,9.323757,7.591715,-3.529001)"><stop offset="0" style="stop-color:#b8860b;stop-opacity:1"/><stop offset="0.26" style="stop-color:#ffd700;stop-opacity:1"/><stop offset="0.43" style="stop-color:#ffde2f;stop-opacity:1"/><stop offset="0.49" style="stop-color:#ffef97;stop-opacity:1"/><stop offset="0.55" style="stop-color:#fff;stop-opacity:1"/><stop offset="0.66" style="stop-color:#ffdf34;stop-opacity:1"/><stop offset="0.81" style="stop-color:#ffd700;stop-opacity:1"/><stop offset="1" style="stop-color:#b8860b;stop-opacity:1"/></radialGradient><radialGradient id="_Radial9" cx="0" cy="0" r="1" gradientUnits="userSpaceOnUse" gradientTransform="matrix(9.587663,0,0,9.323757,6.591715,-3.529001)"><stop offset="0" style="stop-color:#b8860b;stop-opacity:1"/><stop offset="0.26" style="stop-color:#ffd700;stop-opacity:1"/><stop offset="0.43" style="stop-color:#ffde2f;stop-opacity:1"/><stop offset="0.49" style="stop-color:#ffef97;stop-opacity:1"/><stop offset="0.55" style="stop-color:#fff;stop-opacity:1"/><stop offset="0.66" style="stop-color:#ffdf34;stop-opacity:1"/><stop offset="0.81" style="stop-color:#ffd700;stop-opacity:1"/><stop offset="1" style="stop-color:#b8860b;stop-opacity:1"/></radialGradient><radialGradient id="_Radial10" cx="0" cy="0" r="1" gradientUnits="userSpaceOnUse" gradientTransform="matrix(9.587663,0,0,9.323757,5.591715,-3.529001)"><stop offset="0" style="stop-color:#b8860b;stop-opacity:1"/><stop offset="0.26" style="stop-color:#ffd700;stop-opacity:1"/><stop offset="0.43" style="stop-color:#ffde2f;stop-opacity:1"/><stop offset="0.49" style="stop-color:#ffef97;stop-opacity:1"/><stop offset="0.55" style="stop-color:#fff;stop-opacity:1"/><stop offset="0.66" style="stop-color:#ffdf34;stop-opacity:1"/><stop offset="0.81" style="stop-color:#ffd700;stop-opacity:1"/><stop offset="1" style="stop-color:#b8860b;stop-opacity:1"/></radialGradient><radialGradient id="_Radial11" cx="0" cy="0" r="1" gradientUnits="userSpaceOnUse" gradientTransform="matrix(9.587663,0,0,9.323757,10.591715,-3.529001)"><stop offset="0" style="stop-color:#b8860b;stop-opacity:1"/><stop offset="0.26" style="stop-color:#ffd700;stop-opacity:1"/><stop offset="0.43" style="stop-color:#ffde2f;stop-opacity:1"/><stop offset="0.49" style="stop-color:#ffef97;stop-opacity:1"/><stop offset="0.55" style="stop-color:#fff;stop-opacity:1"/><stop offset="0.66" style="stop-color:#ffdf34;stop-opacity:1"/><stop offset="0.81" style="stop-color:#ffd700;stop-opacity:1"/><stop offset="1" style="stop-color:#b8860b;stop-opacity:1"/></radialGradient><radialGradient id="_Radial12" cx="0" cy="0" r="1" gradientUnits="userSpaceOnUse" gradientTransform="matrix(9.587663,0,0,9.323757,9.591715,-3.529001)"><stop offset="0" style="stop-color:#b8860b;stop-opacity:1"/><stop offset="0.26" style="stop-color:#ffd700;stop-opacity:1"/><stop offset="0.43" style="stop-color:#ffde2f;stop-opacity:1"/><stop offset="0.49" style="stop-color:#ffef97;stop-opacity:1"/><stop offset="0.55" style="stop-color:#fff;stop-opacity:1"/><stop offset="0.66" style="stop-color:#ffdf34;stop-opacity:1"/><stop offset="0.81" style="stop-color:#ffd700;stop-opacity:1"/><stop offset="1" style="stop-color:#b8860b;stop-opacity:1"/></radialGradient><radialGradient id="_Radial13" cx="0" cy="0" r="1" gradientUnits="userSpaceOnUse" gradientTransform="matrix(9.587663,0,0,9.323757,8.591715,-3.529001)"><stop offset="0" style="stop-color:#b8860b;stop-opacity:1"/><stop offset="0.26" style="stop-color:#ffd700;stop-opacity:1"/><stop offset="0.43" style="stop-color:#ffde2f;stop-opacity:1"/><stop offset="0.49" style="stop-color:#ffef97;stop-opacity:1"/><stop offset="0.55" style="stop-color:#fff;stop-opacity:1"/><stop offset="0.66" style="stop-color:#ffdf34;stop-opacity:1"/><stop offset="0.81" style="stop-color:#ffd700;stop-opacity:1"/><stop offset="1" style="stop-color:#b8860b;stop-opacity:1"/></radialGradient><radialGradient id="_Radial14" cx="0" cy="0" r="1" gradientUnits="userSpaceOnUse" gradientTransform="matrix(9.587663,0,0,9.323757,7.591715,-3.529001)"><stop offset="0" style="stop-color:#b8860b;stop-opacity:1"/><stop offset="0.26" style="stop-color:#ffd700;stop-opacity:1"/><stop offset="0.43" style="stop-color:#ffde2f;stop-opacity:1"/><stop offset="0.49" style="stop-color:#ffef97;stop-opacity:1"/><stop offset="0.55" style="stop-color:#fff;stop-opacity:1"/><stop offset="0.66" style="stop-color:#ffdf34;stop-opacity:1"/><stop offset="0.81" style="stop-color:#ffd700;stop-opacity:1"/><stop offset="1" style="stop-color:#b8860b;stop-opacity:1"/></radialGradient><radialGradient id="_Radial15" cx="0" cy="0" r="1" gradientUnits="userSpaceOnUse" gradientTransform="matrix(9.587663,0,0,9.323757,6.591715,-3.529001)"><stop offset="0" style="stop-color:#b8860b;stop-opacity:1"/><stop offset="0.26" style="stop-color:#ffd700;stop-opacity:1"/><stop offset="0.43" style="stop-color:#ffde2f;stop-opacity:1"/><stop offset="0.49" style="stop-color:#ffef97;stop-opacity:1"/><stop offset="0.55" style="stop-color:#fff;stop-opacity:1"/><stop offset="0.66" style="stop-color:#ffdf34;stop-opacity:1"/><stop offset="0.81" style="stop-color:#ffd700;stop-opacity:1"/><stop offset="1" style="stop-color:#b8860b;stop-opacity:1"/></radialGradient><radialGradient id="_Radial16" cx="0" cy="0" r="1" gradientUnits="userSpaceOnUse" gradientTransform="matrix(9.587663,0,0,9.323757,5.591715,-3.529001)"><stop offset="0" style="stop-color:#b8860b;stop-opacity:1"/><stop offset="0.26" style="stop-color:#ffd700;stop-opacity:1"/><stop offset="0.43" style="stop-color:#ffde2f;stop-opacity:1"/><stop offset="0.49" style="stop-color:#ffef97;stop-opacity:1"/><stop offset="0.55" style="stop-color:#fff;stop-opacity:1"/><stop offset="0.66" style="stop-color:#ffdf34;stop-opacity:1"/><stop offset="0.81" style="stop-color:#ffd700;stop-opacity:1"/><stop offset="1" style="stop-color:#b8860b;stop-opacity:1"/></radialGradient><radialGradient id="_Radial17" cx="0" cy="0" r="1" gradientUnits="userSpaceOnUse" gradientTransform="matrix(6.584563,0,0,6.403319,7.86045,4.364417)"><stop offset="0" style="stop-color:#b8860b;stop-opacity:1"/><stop offset="0.26" style="stop-color:#ffd700;stop-opacity:1"/><stop offset="0.4" style="stop-color:#ffde2f;stop-opacity:1"/><stop offset="0.45" style="stop-color:#ffef97;stop-opacity:1"/><stop offset="0.49" style="stop-color:#fff;stop-opacity:1"/><stop offset="0.54" style="stop-color:#fff;stop-opacity:1"/><stop offset="0.75" style="stop-color:#ffd700;stop-opacity:1"/><stop offset="1" style="stop-color:#b8860b;stop-opacity:1"/></radialGradient><radialGradient id="_Radial18" cx="0" cy="0" r="1" gradientUnits="userSpaceOnUse" gradientTransform="matrix(6.584563,0,0,6.403319,7.24245,4.364417)"><stop offset="0" style="stop-color:#b8860b;stop-opacity:1"/><stop offset="0.26" style="stop-color:#ffd700;stop-opacity:1"/><stop offset="0.4" style="stop-color:#ffde2f;stop-opacity:1"/><stop offset="0.45" style="stop-color:#ffef97;stop-opacity:1"/><stop offset="0.49" style="stop-color:#fff;stop-opacity:1"/><stop offset="0.54" style="stop-color:#fff;stop-opacity:1"/><stop offset="0.75" style="stop-color:#ffd700;stop-opacity:1"/><stop offset="1" style="stop-color:#b8860b;stop-opacity:1"/></radialGradient><radialGradient id="_Radial19" cx="0" cy="0" r="1" gradientUnits="userSpaceOnUse" gradientTransform="matrix(6.584563,0,0,6.403319,6.62445,4.364417)"><stop offset="0" style="stop-color:#b8860b;stop-opacity:1"/><stop offset="0.26" style="stop-color:#ffd700;stop-opacity:1"/><stop offset="0.4" style="stop-color:#ffde2f;stop-opacity:1"/><stop offset="0.45" style="stop-color:#ffef97;stop-opacity:1"/><stop offset="0.49" style="stop-color:#fff;stop-opacity:1"/><stop offset="0.54" style="stop-color:#fff;stop-opacity:1"/><stop offset="0.75" style="stop-color:#ffd700;stop-opacity:1"/><stop offset="1" style="stop-color:#b8860b;stop-opacity:1"/></radialGradient><radialGradient id="_Radial20" cx="0" cy="0" r="1" gradientUnits="userSpaceOnUse" gradientTransform="matrix(6.584563,0,0,6.403319,7.86045,4.364417)"><stop offset="0" style="stop-color:#b8860b;stop-opacity:1"/><stop offset="0.26" style="stop-color:#ffd700;stop-opacity:1"/><stop offset="0.4" style="stop-color:#ffde2f;stop-opacity:1"/><stop offset="0.45" style="stop-color:#ffef97;stop-opacity:1"/><stop offset="0.49" style="stop-color:#fff;stop-opacity:1"/><stop offset="0.54" style="stop-color:#fff;stop-opacity:1"/><stop offset="0.75" style="stop-color:#ffd700;stop-opacity:1"/><stop offset="1" style="stop-color:#b8860b;stop-opacity:1"/></radialGradient><radialGradient id="_Radial21" cx="0" cy="0" r="1" gradientUnits="userSpaceOnUse" gradientTransform="matrix(6.584563,0,0,6.403319,7.24245,4.364417)"><stop offset="0" style="stop-color:#b8860b;stop-opacity:1"/><stop offset="0.26" style="stop-color:#ffd700;stop-opacity:1"/><stop offset="0.4" style="stop-color:#ffde2f;stop-opacity:1"/><stop offset="0.45" style="stop-color:#ffef97;stop-opacity:1"/><stop offset="0.49" style="stop-color:#fff;stop-opacity:1"/><stop offset="0.54" style="stop-color:#fff;stop-opacity:1"/><stop offset="0.75" style="stop-color:#ffd700;stop-opacity:1"/><stop offset="1" style="stop-color:#b8860b;stop-opacity:1"/></radialGradient><radialGradient id="_Radial22" cx="0" cy="0" r="1" gradientUnits="userSpaceOnUse" gradientTransform="matrix(6.584563,0,0,6.403319,6.62445,4.364417)"><stop offset="0" style="stop-color:#b8860b;stop-opacity:1"/><stop offset="0.26" style="stop-color:#ffd700;stop-opacity:1"/><stop offset="0.4" style="stop-color:#ffde2f;stop-opacity:1"/><stop offset="0.45" style="stop-color:#ffef97;stop-opacity:1"/><stop offset="0.49" style="stop-color:#fff;stop-opacity:1"/><stop offset="0.54" style="stop-color:#fff;stop-opacity:1"/><stop offset="0.75" style="stop-color:#ffd700;stop-opacity:1"/><stop offset="1" style="stop-color:#b8860b;stop-opacity:1"/></radialGradient><linearGradient id="_Linear23" x1="0" y1="0" x2="1" y2="0" gradientUnits="userSpaceOnUse" gradientTransform="matrix(424.910332,0,0,424.910332,0.127435,243.227073)"><stop offset="0" style="stop-color:#ffe7b2;stop-opacity:1"/><stop offset="0" style="stop-color:#b8860b;stop-opacity:1"/><stop offset="0.21" style="stop-color:#ebc103;stop-opacity:1"/><stop offset="0.39" style="stop-color:#ffd700;stop-opacity:1"/><stop offset="0.48" style="stop-color:#ffe033;stop-opacity:1"/><stop offset="0.57" style="stop-color:#fff8c2;stop-opacity:1"/><stop offset="0.64" style="stop-color:#ffe034;stop-opacity:1"/><stop offset="0.7" style="stop-color:#ffd700;stop-opacity:1"/><stop offset="1" style="stop-color:#b8860b;stop-opacity:1"/></linearGradient></defs></svg>